<svg width="28" height="31" viewBox="0 0 28 31" fill="none" xmlns="http://www.w3.org/2000/svg">
<path d="M23.7428 17.9904C26.8851 18.8794 28.7847 22.2704 26.7572 24.8302C25.8175 26.0166 24.6967 27.0628 23.4258 27.9259C20.5066 29.9083 16.982 30.7981 13.4717 30.4388C9.96132 30.0796 6.69002 28.4943 4.23291 25.9617C1.7758 23.4291 0.29021 20.1113 0.037334 16.5917C-0.215543 13.0721 0.780488 9.57606 2.8503 6.7182C4.92011 3.86035 7.93118 1.82368 11.3541 0.96629C14.777 0.108904 18.3926 0.485693 21.5652 2.03041C22.9465 2.70295 24.2053 3.57813 25.305 4.61803C27.6776 6.86172 26.2823 10.4895 23.2994 11.8185L19.924 13.3224C18.8053 13.8208 17.4895 13.1987 16.3884 12.6626C15.717 12.3357 14.9518 12.256 14.2274 12.4374C13.503 12.6189 12.8658 13.0499 12.4278 13.6547C11.9897 14.2595 11.7789 14.9994 11.8324 15.7443C11.886 16.4891 12.2004 17.1913 12.7204 17.7273C13.2404 18.2632 13.9327 18.5987 14.6756 18.6748C15.4185 18.7508 16.1644 18.5625 16.7822 18.1429C17.7953 17.4549 19.0087 16.6512 20.1871 16.9845L23.7428 17.9904Z" fill="#35AFBF"/>
</svg>
