<svg width="155" height="31" viewBox="0 0 155 31" fill="none" xmlns="http://www.w3.org/2000/svg">
<path d="M21.8994 25.5718L1.22469 11.3104C-0.870442 9.8652 -0.158233 6.85618 2.45435 6.14858L24.4279 0.184715C24.8934 0.0167579 25.3922 -0.0377631 25.8829 0.0256783C26.3737 0.0891197 26.8422 0.268693 27.2497 0.549495C27.6572 0.830297 27.9918 1.20423 28.2258 1.64025C28.4597 2.07628 28.5864 2.56183 28.5951 3.05659L27.2929 23.2807C27.1384 25.6813 23.9946 27.0169 21.8994 25.5718Z" fill="#E9327C"/>
<path d="M15.3418 29.0922L3.16167 5.2724C2.88325 4.72747 2.76073 4.11624 2.80762 3.5061C2.85452 2.89596 3.06901 2.31063 3.42743 1.81465C3.78586 1.31867 4.2743 0.931316 4.83889 0.695299C5.40347 0.459281 6.02228 0.383774 6.62705 0.477102L29.1999 3.96092C29.7196 4.04114 30.2128 4.24357 30.639 4.55156C31.0652 4.85955 31.4123 5.26431 31.6516 5.73256C31.8909 6.20081 32.0156 6.71917 32.0155 7.24502C32.0154 7.77087 31.8905 8.2892 31.6511 8.75737L21.2527 29.0933C20.9734 29.6367 20.5498 30.0925 20.0283 30.4108C19.5069 30.729 18.9078 30.8973 18.2969 30.8972C17.686 30.8971 17.0869 30.7285 16.5656 30.4101C16.0443 30.0916 15.6208 29.6356 15.3418 29.0922Z" fill="#1DACE3"/>
<path d="M28.5395 3.85855L17.2871 2.12183L3.47168 5.87302L8.9861 16.661L21.8992 25.5716C22.1841 25.766 22.4974 25.9149 22.828 26.013L27.7328 16.4213L28.5395 3.85855Z" fill="#001A49"/>
<path d="M85.5361 6.6428C85.5361 6.22455 85.6602 5.81569 85.8925 5.46792C86.1249 5.12016 86.4552 4.84911 86.8416 4.68905C87.228 4.52899 87.6532 4.48711 88.0634 4.56871C88.4736 4.65031 88.8504 4.85172 89.1462 5.14747C89.4419 5.44322 89.6434 5.82002 89.725 6.23024C89.8065 6.64046 89.7647 7.06566 89.6046 7.45207C89.4446 7.83849 89.1735 8.16876 88.8257 8.40113C88.478 8.6335 88.0691 8.75753 87.6509 8.75753C87.0918 8.75182 86.5572 8.52719 86.1618 8.13184C85.7665 7.73648 85.5418 7.20189 85.5361 6.6428ZM85.8888 9.79127H89.4141V21.5392H85.8888V9.79127Z" fill="#001A49"/>
<path d="M104.638 15.6655C104.679 16.4421 104.566 17.219 104.306 17.9517C104.045 18.6844 103.643 19.3584 103.121 19.935C102.599 20.5115 101.968 20.9792 101.265 21.3111C100.562 21.643 99.8001 21.8327 99.0233 21.8691C98.37 21.9047 97.7169 21.7945 97.1113 21.5466C96.5058 21.2986 95.963 20.9191 95.5222 20.4355V26.2392H91.998V9.79157H95.5222V10.8956C95.9631 10.4122 96.5059 10.0329 97.1115 9.78517C97.717 9.53742 98.37 9.42741 99.0233 9.46312C99.8 9.49941 100.562 9.68892 101.265 10.0207C101.968 10.3525 102.599 10.8201 103.121 11.3966C103.642 11.973 104.045 12.6469 104.306 13.3796C104.566 14.1122 104.679 14.8891 104.638 15.6655ZM101.114 15.6655C101.1 15.1155 100.924 14.5818 100.609 14.1311C100.293 13.6805 99.8513 13.333 99.3391 13.132C98.8269 12.9311 98.2668 12.8857 97.729 13.0016C97.1911 13.1174 96.6993 13.3893 96.3152 13.7832C95.9311 14.1771 95.6717 14.6756 95.5695 15.2162C95.4673 15.7569 95.5268 16.3156 95.7405 16.8226C95.9543 17.3296 96.3129 17.7622 96.7713 18.0664C97.2298 18.3706 97.7678 18.5329 98.318 18.5328C98.6958 18.5498 99.073 18.4868 99.4247 18.3477C99.7764 18.2087 100.095 17.9968 100.359 17.726C100.623 17.4552 100.827 17.1317 100.957 16.7765C101.087 16.4214 101.14 16.0428 101.114 15.6655Z" fill="#001A49"/>
<path d="M115.516 18.0128C115.516 20.7153 113.166 21.8666 110.628 21.8666C109.603 21.9593 108.574 21.7424 107.673 21.2437C106.773 20.7451 106.043 19.9877 105.577 19.0696L108.631 17.3317C108.755 17.7561 109.021 18.125 109.385 18.3767C109.748 18.6285 110.187 18.7478 110.628 18.7147C111.474 18.7147 111.896 18.4554 111.896 17.9863C111.896 16.6933 106.116 17.3755 106.116 13.3097C106.116 10.749 108.277 9.45712 110.726 9.45712C111.645 9.42829 112.554 9.64625 113.36 10.0883C114.166 10.5304 114.838 11.1804 115.307 11.9706L112.3 13.5921C112.169 13.2837 111.95 13.0209 111.67 12.8364C111.39 12.6519 111.062 12.554 110.726 12.5549C110.115 12.5549 109.74 12.7854 109.74 13.2129C109.736 14.5613 115.516 13.6681 115.516 18.0128Z" fill="#001A49"/>
<path d="M128.396 9.79126V21.5392H124.872V20.4329C124.465 20.9202 123.948 21.3042 123.364 21.5534C122.78 21.8026 122.145 21.9099 121.511 21.8665C119.138 21.8665 117.118 20.1747 117.118 17.0021V9.79126H120.642V16.4881C120.613 16.7681 120.644 17.0512 120.735 17.3177C120.826 17.5842 120.974 17.8276 121.169 18.0311C121.363 18.2346 121.6 18.3933 121.862 18.496C122.124 18.5987 122.406 18.643 122.687 18.6259C123.979 18.6259 124.876 17.8745 124.876 16.2057V9.79126H128.396Z" fill="#001A49"/>
<path d="M148.597 14.325V21.5393H145.072V14.6315C145.072 13.4572 144.508 12.7047 143.381 12.7047C142.205 12.7047 141.548 13.5275 141.548 14.9139V21.5393H138.023V14.6315C138.023 13.4572 137.459 12.7047 136.331 12.7047C135.157 12.7047 134.499 13.5275 134.499 14.9139V21.5393H130.975V9.79131H134.505V10.8677C134.87 10.3884 135.349 10.0083 135.899 9.76207C136.449 9.51586 137.052 9.4114 137.653 9.45825C138.256 9.42876 138.857 9.55603 139.396 9.82767C139.936 10.0993 140.396 10.5061 140.731 11.0083C141.122 10.4828 141.639 10.065 142.235 9.79392C142.831 9.52283 143.486 9.40735 144.139 9.45825C146.836 9.46286 148.597 11.3886 148.597 14.325Z" fill="#001A49"/>
<path d="M151.582 9.71864C153.027 9.71864 154.198 8.54741 154.198 7.10261C154.198 5.65781 153.027 4.48657 151.582 4.48657C150.137 4.48657 148.966 5.65781 148.966 7.10261C148.966 8.54741 150.137 9.71864 151.582 9.71864Z" fill="#001A49"/>
<path d="M37.4189 4.38745H40.9443V21.5392H37.4189V4.38745ZM42.9403 15.6652C42.9364 14.4336 43.2981 13.2285 43.9795 12.2025C44.661 11.1765 45.6315 10.3758 46.7683 9.90181C47.9051 9.42779 49.157 9.30175 50.3655 9.53965C51.5739 9.77756 52.6846 10.3687 53.5569 11.2383C54.4292 12.1078 55.0239 13.2166 55.2656 14.4243C55.5073 15.632 55.3852 16.8843 54.9148 18.0226C54.4443 19.1609 53.6467 20.1339 52.6229 20.8186C51.5991 21.5033 50.3951 21.8688 49.1635 21.8688C48.3454 21.8776 47.5339 21.7232 46.7762 21.4148C46.0185 21.1064 45.3298 20.6501 44.7505 20.0725C44.1711 19.495 43.7126 18.8078 43.4018 18.0511C43.091 17.2943 42.9341 16.4833 42.9403 15.6652ZM51.8694 15.6652C51.8556 15.1339 51.6854 14.6185 51.3801 14.1834C51.0749 13.7484 50.6482 13.4129 50.1533 13.2191C49.6584 13.0253 49.1174 12.9817 48.5979 13.0938C48.0784 13.2059 47.6035 13.4687 47.2325 13.8493C46.8616 14.2299 46.6111 14.7114 46.5124 15.2336C46.4137 15.7558 46.4711 16.2956 46.6776 16.7853C46.884 17.275 47.2303 17.693 47.6731 17.987C48.1158 18.2809 48.6354 18.4378 49.1669 18.438C49.5308 18.4484 49.893 18.3832 50.2305 18.2467C50.568 18.1101 50.8735 17.9051 51.1279 17.6446C51.3822 17.3841 51.5798 17.0737 51.7082 16.7331C51.8366 16.3924 51.8931 16.0288 51.874 15.6652H51.8694ZM69.4429 9.78778V20.9492C69.4429 24.8963 66.3647 26.5638 63.2405 26.5638C62.1407 26.6468 61.0394 26.4255 60.0571 25.924C59.0748 25.4225 58.2496 24.6602 57.6719 23.7208L60.6786 21.9817C60.9213 22.472 61.3079 22.8766 61.7867 23.1412C62.2656 23.4059 62.8138 23.518 63.358 23.4626C63.7054 23.5101 64.059 23.4789 64.3927 23.3714C64.7265 23.2639 65.0318 23.0829 65.2862 22.8416C65.5406 22.6004 65.7376 22.3051 65.8626 21.9776C65.9877 21.65 66.0376 21.2986 66.0086 20.9492V19.8682C65.5958 20.373 65.0704 20.7741 64.4747 21.0393C63.8789 21.3044 63.2292 21.4263 62.5778 21.3951C61.0271 21.347 59.5561 20.6971 58.4762 19.5831C57.3964 18.4692 56.7925 16.9787 56.7925 15.4272C56.7925 13.8758 57.3964 12.3853 58.4762 11.2713C59.5561 10.1574 61.0271 9.50753 62.5778 9.45934C63.2292 9.42816 63.8789 9.55005 64.4747 9.81523C65.0704 10.0804 65.5958 10.4815 66.0086 10.9863V9.78778H69.4429ZM66.0133 15.4267C66.0365 14.8592 65.8894 14.2978 65.5911 13.8147C65.2927 13.3315 64.8566 12.9486 64.3389 12.7152C63.8211 12.4818 63.2454 12.4087 62.6858 12.5051C62.1261 12.6015 61.6081 12.8631 61.1983 13.2563C60.7886 13.6495 60.5058 14.1562 60.3863 14.7114C60.2668 15.2666 60.3161 15.8449 60.5279 16.3718C60.7397 16.8987 61.1042 17.3503 61.5747 17.6683C62.0451 17.9864 62.6 18.1565 63.1679 18.1568C63.5382 18.1828 63.9098 18.1311 64.2589 18.0049C64.6079 17.8786 64.9267 17.6808 65.1947 17.4239C65.4627 17.1671 65.674 16.857 65.815 16.5136C65.956 16.1703 66.0235 15.8012 66.0133 15.4301V15.4267ZM71.4389 15.6572C71.4351 14.4255 71.7967 13.2204 72.4782 12.1944C73.1596 11.1685 74.1302 10.3678 75.267 9.89374C76.4038 9.41972 77.6557 9.29368 78.8641 9.53159C80.0726 9.76949 81.1833 10.3606 82.0556 11.2302C82.9279 12.0997 83.5225 13.2085 83.7642 14.4163C84.0059 15.624 83.8839 16.8762 83.4134 18.0145C82.943 19.1528 82.1454 20.1259 81.1215 20.8106C80.0977 21.4952 78.8938 21.8607 77.6621 21.8607C76.8448 21.8695 76.0339 21.7154 75.2767 21.4075C74.5196 21.0996 73.8313 20.644 73.252 20.0673C72.6727 19.4906 72.2141 18.8044 71.9028 18.0486C71.5915 17.2928 71.4338 16.4826 71.4389 15.6652V15.6572ZM80.368 15.6572C80.3544 15.1255 80.1843 14.6097 79.8791 14.1743C79.5738 13.7388 79.1469 13.4031 78.6518 13.2091C78.1566 13.015 77.6153 12.9713 77.0954 13.0834C76.5756 13.1955 76.1003 13.4584 75.7292 13.8392C75.358 14.2201 75.1074 14.7019 75.0087 15.2245C74.9099 15.747 74.9675 16.2871 75.1742 16.7771C75.3809 17.2671 75.7275 17.6852 76.1706 17.9792C76.6138 18.2732 77.1338 18.43 77.6656 18.4299C78.0284 18.4396 78.3893 18.3742 78.7257 18.2378C79.0621 18.1015 79.3667 17.8971 79.6204 17.6376C79.8741 17.378 80.0715 17.0688 80.2001 16.7294C80.3288 16.3901 80.3859 16.0277 80.368 15.6652V15.6572Z" fill="#001A49"/>
</svg>
